<svg width="69" height="47" viewBox="0 0 69 47" fill="none" xmlns="http://www.w3.org/2000/svg">
  <path d="M1.16211 14.1955L5.85693 14.18L10.4572 28.1947L14.7913 14.1504L19.6284 14.1344L24.0864 28.1496L28.5627 14.1048L33.2576 14.0893L26.6379 33.7532L21.5447 33.77L17.2316 20.54L13.0087 33.7983L7.91553 33.8151L1.16211 14.1955ZM48.9227 33.6794L32.1921 33.7348L32.1252 14.0931L48.8559 14.0377L48.8702 18.2466L36.6921 18.2869L36.7045 21.9347L47.4599 21.8991L47.4733 25.8274L36.7179 25.863L36.7303 29.5107L48.9084 29.4704L48.9227 33.6794ZM60.5989 33.6407L48.6484 33.6803L48.5816 14.0386L59.9629 14.0009C62.2582 13.9933 63.9194 14.4181 64.9467 15.2752C65.9928 16.1135 66.5191 17.4587 66.5254 19.3105C66.532 21.2373 65.9486 22.6236 64.7754 23.4692C66.3336 24.2685 67.1166 25.8278 67.1245 28.1475C67.131 30.0555 66.6141 31.4509 65.5739 32.3335C64.5524 33.1974 62.8941 33.6331 60.5989 33.6407ZM53.1866 29.4563L60.5845 29.4318C61.3812 29.4292 61.9592 29.2776 62.3187 28.9771C62.678 28.6579 62.8565 28.171 62.8543 27.5162C62.8521 26.8615 62.6702 26.3851 62.3088 26.087C61.9474 25.7888 61.3683 25.6411 60.5716 25.6438L53.1738 25.6682L53.1866 29.4563ZM53.1604 21.7399L59.8469 21.7178C60.6815 21.715 61.2881 21.5727 61.6665 21.2909C62.0639 21.0089 62.2616 20.5593 62.2594 19.942C62.2574 19.3434 62.0757 18.9044 61.7143 18.625C61.353 18.3456 60.7739 18.2072 59.9772 18.2098L53.1484 18.2325L53.1604 21.7399Z" fill="white" />
  <path d="M0.500977 8.92011L2.24233 8.91435C2.34838 9.27969 2.58309 9.54927 2.94646 9.72296C3.30982 9.88873 3.83815 9.97045 4.53146 9.96814C5.81329 9.96393 6.45324 9.67954 6.45132 9.11505C6.4504 8.84477 6.28036 8.62667 5.9412 8.46084C5.60203 8.29501 5.00896 8.14194 4.16199 8.00164C2.80679 7.76762 1.87464 7.47258 1.36552 7.1165C0.864449 6.75245 0.612677 6.20869 0.610214 5.48523C0.607319 4.63456 0.89542 4.0095 1.47452 3.61007C2.05359 3.20269 2.95179 2.99698 4.16912 2.99295C5.35421 2.98903 6.24574 3.19278 6.84372 3.60422C7.44166 4.00771 7.80672 4.6783 7.93896 5.616L6.1613 5.62188C6.07941 5.24849 5.86888 4.97888 5.52972 4.81304C5.19859 4.63923 4.71055 4.55339 4.06561 4.55553C2.8644 4.5595 2.26472 4.83577 2.26659 5.38434C2.26743 5.63079 2.42128 5.82904 2.72815 5.97908C3.04307 6.1291 3.61194 6.27827 4.43476 6.4266C5.83838 6.67636 6.80282 6.98324 7.32806 7.34722C7.85332 7.71115 8.11722 8.25888 8.11971 8.99033C8.12263 9.84895 7.81846 10.4899 7.20721 10.9133C6.59591 11.3288 5.65338 11.5386 4.37961 11.5428C3.15422 11.5468 2.23447 11.3432 1.62037 10.9318C1.00626 10.5204 0.633131 9.84986 0.500977 8.92011ZM12.2619 4.63573L12.2565 3.06158L20.5401 3.03417L20.5454 4.60831L17.2562 4.6192L17.2792 11.3928L15.5742 11.3984L15.5512 4.62484L12.2619 4.63573ZM25.3445 3.01827L27.0496 3.01262L27.0652 7.59197C27.068 8.3949 27.2594 8.97861 27.6395 9.34311C28.0197 9.70753 28.6249 9.88838 29.4553 9.88564C30.2856 9.8829 30.8857 9.69806 31.2553 9.33111C31.6329 8.96416 31.8204 8.37919 31.8177 7.57619L31.8021 2.99689L33.5072 2.99125L33.5232 7.70175C33.5276 9.01355 33.2084 9.96863 32.5655 10.567C31.9226 11.1574 30.8876 11.4551 29.4606 11.4598C28.0338 11.4645 26.9928 11.1738 26.3377 10.5876C25.6907 9.99353 25.365 9.04055 25.3606 7.72876L25.3445 3.01827ZM38.8427 11.3214L38.8143 2.97368L42.418 2.96176C43.9336 2.95674 45.0351 3.28303 45.7226 3.94062C46.4182 4.5982 46.7685 5.6584 46.7734 7.12127C46.7784 8.58409 46.4353 9.64657 45.7443 10.3087C45.0613 10.9708 43.962 11.3045 42.4464 11.3095L38.8427 11.3214ZM40.5425 9.74162L42.3806 9.73552C43.3318 9.73236 44.0204 9.52739 44.4463 9.12052C44.8722 8.70566 45.0836 8.04114 45.0805 7.12688C45.0773 6.21257 44.8614 5.55341 44.4328 5.14937C44.0041 4.73737 43.3141 4.53294 42.3629 4.53609L40.5247 4.54218L40.5425 9.74162ZM51.9208 11.2781L51.8924 2.93039L53.5975 2.92475L53.6258 11.2725L51.9208 11.2781ZM63.0699 2.78607C64.5855 2.78105 65.687 3.11529 66.3746 3.78879C67.0703 4.46227 67.4206 5.5503 67.4257 7.05287C67.4308 8.54754 67.0878 9.63787 66.3969 10.3239C65.7139 11.0019 64.6146 11.3434 63.099 11.3485C61.5753 11.3535 60.4697 11.0193 59.7821 10.3457C59.0946 9.66432 58.7482 8.57623 58.7432 7.08163C58.738 5.57904 59.0769 4.48872 59.7599 3.81069C60.4428 3.13265 61.5462 2.79111 63.0699 2.78607ZM61.0579 5.01086C60.6402 5.44156 60.4329 6.12995 60.4362 7.07602C60.4394 8.02213 60.6513 8.7091 61.0719 9.13701C61.4926 9.56492 62.1666 9.7774 63.0936 9.77431C64.0207 9.77123 64.6932 9.55433 65.1109 9.12368C65.5287 8.69296 65.7359 8.00459 65.7327 7.05849C65.7295 6.11242 65.5175 5.42542 65.0969 4.99749C64.6762 4.56162 64.0023 4.34522 63.0752 4.34828C62.1481 4.35136 61.4756 4.57221 61.0579 5.01086Z" fill="white" />
</svg>