<svg width="241" height="412" viewBox="0 0 241 412" fill="none" xmlns="http://www.w3.org/2000/svg">
<path fill-rule="evenodd" clip-rule="evenodd" d="M65.3089 299.358C65.3089 299.358 43.4828 287.321 41.8555 284.712C40.2283 282.103 32.2248 271.616 33.2418 269.874C34.2588 268.132 63.266 256.695 71.2076 269.116C79.1492 281.536 80.9533 288.622 80.9533 288.622C80.9533 288.622 69.3062 299.992 65.3089 299.358Z" fill="url(#paint0_radial_90_848)"/>
<path fill-rule="evenodd" clip-rule="evenodd" d="M77.8049 287.305C77.8049 287.305 69.6687 299.025 65.6802 298.408C65.6802 298.408 41.8465 286.162 36.4519 271.058C36.4519 271.058 42.4833 269.241 46.5867 267.849C47.3915 267.565 47.9487 267.282 48.1079 267.023C49.1337 265.281 65.0258 262.139 72.9409 274.534C75.3463 278.335 76.7613 280.986 77.513 282.862C79.2817 287.138 77.8049 287.305 77.8049 287.305Z" fill="#22104B"/>
<path fill-rule="evenodd" clip-rule="evenodd" d="M53.5468 287.846C53.5468 287.846 42.1385 277.968 42.7045 277.001C43.2705 276.034 59.0829 275.851 63.5047 282.77C67.9354 289.697 68.6606 291.639 68.6606 291.639L53.5468 287.846Z" fill="url(#paint1_linear_90_848)"/>
<path d="M4.88014 268.607C6.29512 270.074 8.46181 271.917 10.8142 273.725H10.8319C15.4041 277.26 20.6661 280.627 22.2844 280.936C24.7518 281.403 28.9172 277.235 31.8356 277.877C33.3213 278.21 36.2928 279.761 39.4588 281.219C42.4657 282.586 53.2018 274.526 55.4216 274.576C59.9849 274.667 61.1346 281.344 61.1346 281.344C72.5341 283.137 75.7001 281.394 75.7001 281.394C75.7001 281.394 59.6312 292.606 55.8107 294.081C51.9903 295.557 43.748 306.602 36.1513 321.148C28.5457 335.694 23.611 346.831 23.611 346.831C22.364 346.681 21.5946 344.813 21.5946 344.813L14.732 353.207L11.8489 352.266C11.8489 352.266 9.51421 353.324 7.3652 351.732C5.21619 350.14 6.20669 342.688 6.20669 342.688C6.20669 342.688 5.81757 336.119 7.64821 330.551C8.71829 327.325 12.07 322.165 15.0415 317.313C16.9694 314.196 18.7293 311.195 19.6313 308.911C19.7463 308.619 19.8347 308.344 19.932 308.094C21.7715 302.526 24.9994 292.431 24.7165 290.472C24.4335 288.513 18.7293 284.045 17.2789 283.737C15.8109 283.42 13.6353 285.012 10.9734 284.845C10.655 284.829 10.2217 284.687 9.7353 284.47C6.33933 282.878 -0.249192 276.718 0.00727429 273.184C0.325646 269.157 4.88014 268.607 4.88014 268.607Z" fill="url(#paint2_linear_90_848)"/>
<path fill-rule="evenodd" clip-rule="evenodd" d="M68.6695 291.639C68.6695 291.639 71.6852 284.479 76.0893 281.836C76.0893 281.836 66.5824 269.883 49.5495 269.741L42.7222 277.001C42.7045 276.993 56.1734 279.035 68.6695 291.639Z" fill="url(#paint3_linear_90_848)"/>
<path opacity="0.5" fill-rule="evenodd" clip-rule="evenodd" d="M77.8049 287.304C77.8049 287.304 69.6687 299.025 65.6802 298.408C65.6802 298.408 41.8465 286.162 36.4519 271.058C36.4519 271.058 42.4833 269.241 46.5867 267.849C64.4598 269.107 75.3021 280.336 77.513 282.861C79.2817 287.138 77.8049 287.304 77.8049 287.304Z" fill="#BB61C0"/>
<path opacity="0.5" d="M10.8321 273.725C15.4043 277.26 20.6663 280.627 22.2847 280.936C24.752 281.403 28.9174 277.235 31.8358 277.877C33.3215 278.21 36.293 279.761 39.459 281.219C40.4407 285.487 38.6896 292.514 38.6896 292.514C38.6896 292.514 31.88 298.816 30.4031 303.984C28.9262 309.153 29.6868 318.897 29.6868 318.897L29.2181 322.407C29.2181 322.407 28.3072 322.89 27.1133 323.907C25.4507 325.349 23.2044 327.883 22.152 331.659C20.3479 338.128 21.5948 344.813 21.5948 344.813L14.7322 353.207L11.8491 352.265C11.8491 352.265 9.51441 353.324 7.36541 351.732C5.2164 350.14 6.20689 342.688 6.20689 342.688C6.20689 342.688 5.81777 336.119 7.64841 330.551C8.71849 327.325 12.0702 322.165 15.0417 317.313C16.9696 314.196 18.7295 311.195 19.6316 308.911C19.7465 308.619 19.835 308.344 19.9322 308.094C21.7717 302.526 24.9997 292.431 24.7167 290.472C24.4337 288.513 18.7295 284.045 17.2791 283.737C15.8111 283.42 13.6355 285.012 10.9736 284.845C10.6552 284.829 10.2219 284.687 9.7355 284.47C11.7961 280.794 10.8056 273.734 10.8056 273.734L10.8321 273.725Z" fill="#BB61C0"/>
<path d="M11.8578 352.257C11.8578 352.257 11.3803 338.745 18.7116 331.843C18.7116 331.843 24.7076 323.79 26.4498 318.656C26.4498 318.656 21.3824 327.258 18.579 330.342C15.7844 333.435 9.81492 342.663 11.8578 352.257Z" fill="#CC5268"/>
<path d="M6.21533 342.688C6.21533 342.688 9.56709 329.876 17.4468 323.315C17.4468 323.315 20.5244 317.889 21.3026 315.013C21.3026 315.013 18.3754 318.831 16.9958 321.923C16.9958 321.923 8.55006 329.892 6.21533 342.688Z" fill="#CC5268"/>
<path fill-rule="evenodd" clip-rule="evenodd" d="M135.572 241.166C134.201 246.842 80.962 288.638 80.962 288.638C78.6627 279.369 45.95 268.907 33.2505 269.883L37.2036 268.782L58.2781 260.963L86.4274 239.14C86.4274 239.14 104.07 216.75 105.503 213.991C108.439 216.042 132.238 145.729 132.238 145.729L167.418 117.345C167.426 117.337 136.297 238.307 135.572 241.166Z" fill="url(#paint4_radial_90_848)"/>
<path fill-rule="evenodd" clip-rule="evenodd" d="M86.799 264.689L65.9545 268.399L65.7953 268.424L57.668 269.891L48.3999 268.666L37.2126 268.782L58.2871 260.963L86.799 264.689Z" fill="url(#paint5_linear_90_848)"/>
<path fill-rule="evenodd" clip-rule="evenodd" d="M123.659 354.391C123.659 354.391 120.44 381.549 117.946 411.992H173.449C177.323 388.368 181.355 364.486 181.355 364.486L192.428 371.688C192.428 371.688 193.436 375.239 195.169 381.157C195.169 381.157 195.169 381.157 195.169 381.174C195.187 381.191 195.187 381.191 195.187 381.216C195.187 381.216 195.187 381.232 195.205 381.274C197.345 388.643 200.573 399.63 204.305 412H268.784C267.537 401.03 266.529 391.577 266.175 386.826C265.025 370.721 266.219 340.845 266.219 340.845H264.017C264.017 340.845 257.181 334.419 253.749 328.834C250.725 323.907 242.377 308.452 240.458 304.943C240.219 304.485 240.077 304.218 240.077 304.218L241.227 303.092L253.749 290.889L257.137 289.939L253.749 285.129L235.036 288.288L196.434 294.807L133.573 304.218L131.415 304.885C131.415 304.885 123.615 325.241 121.616 340.029V340.087C121.298 342.521 121.112 344.822 121.174 346.856L123.659 354.391Z" fill="url(#paint6_linear_90_848)"/>
<path opacity="0.5" d="M244.782 294.49L241.236 303.084L240.466 304.926L238.936 308.653L213.139 343.955L218.764 325.766L178.87 320.973L158.963 329.184L168.744 334.085L203.314 349.898C203.314 349.898 167.214 343.413 158.963 338.912C150.712 334.41 132.22 316.938 132.22 316.938L121.607 340.07V340.012C123.606 325.224 131.406 304.868 131.406 304.868L133.564 304.201L196.425 294.79L235.027 288.271L244.782 294.49Z" fill="#935B9D"/>
<path opacity="0.5" d="M142.69 411.992H173.457C177.331 388.368 181.364 364.486 181.364 364.486L192.436 371.688L193.931 366.653C193.931 366.653 213.758 357.034 218.772 355.608C223.778 354.166 251.096 355.608 251.096 355.608L222.885 349.906C222.885 349.906 188.235 361.543 187.209 360.801C186.219 360.059 150.004 341.429 148.872 340.862L167.426 358.009C167.426 358.001 153.851 383.166 142.69 411.992Z" fill="#935B9D"/>
<path opacity="0.5" d="M208.178 411.992C201.209 395.57 195.603 382.191 195.196 381.207C197.336 388.576 200.582 399.588 204.322 411.992H208.178Z" fill="#935B9D"/>
<path opacity="0.5" d="M143.628 411.992H173.458C177.332 388.368 181.364 364.486 181.364 364.486L192.437 371.688L193.931 366.653L187.219 360.801L148.882 340.862L167.436 358.009C167.427 358.001 154.356 385.3 143.628 411.992Z" fill="#935B9D"/>
<path opacity="0.5" d="M208.248 411.992C201.244 395.578 195.655 382.316 195.213 381.266C197.353 388.635 200.581 399.621 204.313 411.992H208.248Z" fill="#935B9D"/>
<path opacity="0.2" d="M170.097 312.562L174.988 336.944L172.538 343.371L178.234 356.033C178.234 356.033 166.967 349.006 164.287 346.605C161.616 344.205 158.972 338.928 158.972 338.928L164.924 332.176L156.77 307.586L170.097 312.562Z" fill="#807CAF"/>
<path opacity="0.5" d="M227.97 309.019C227.97 309.019 243.827 337.469 246.312 342.871C248.797 348.273 265.794 356.025 265.794 356.025L266.228 340.837L264.645 342.871C264.645 342.871 257.287 339.353 254.846 335.302C252.405 331.259 238.936 308.653 238.936 308.653L240.776 301.875L227.97 309.019Z" fill="#935B9D"/>
<path d="M226.104 69.7896C224.866 72.057 219.878 76.2666 218.543 75.8414C218.543 75.8414 218.543 75.8414 218.525 75.8248C217.508 75.508 215.757 72.9906 214.988 71.7986L214.855 71.5818L214.607 71.1901L216.04 99.8653L174.961 127.874L174.908 127.432L174.855 127.023L174.722 126.065C174.271 122.447 173.201 114.203 172.255 108.384C171.707 104.875 171.203 102.249 170.937 102.108C170.106 101.666 158.238 99.8736 156.557 98.1898C154.904 96.5059 150.137 68.3892 150.615 65.7134C151.03 63.4961 153.568 60.0534 154.4 57.536C154.585 57.0025 154.683 56.5107 154.665 56.0605C154.55 53.6098 151.578 38.3803 151.808 35.0043C152.056 31.6533 160.254 14.4982 160.254 14.4982C171.353 13.2228 187.218 12.9727 197.061 16.7655C198.68 17.3657 200.13 18.0992 201.368 18.9495C203.172 20.1915 204.525 21.6836 205.304 23.4758C209.823 33.9956 212.909 54.8352 212.909 54.8352C212.909 54.8352 213.325 53.9683 213.944 52.7596C215.412 49.9921 218.065 45.449 219.798 45.349C222.301 45.174 229.075 50.2088 229.792 53.1513C230.482 56.1022 227.36 67.5223 226.104 69.7896Z" fill="url(#paint7_linear_90_848)"/>
<path d="M178.897 49.2418C178.897 49.2418 178.578 51.5925 185.653 50.809C193.17 49.9837 195.311 46.1576 195.311 46.1576C195.311 46.1576 189.315 49.2252 178.897 49.2418Z" fill="#EC7C82"/>
<path fill-rule="evenodd" clip-rule="evenodd" d="M152.427 32.5619C152.427 32.5619 156.045 33.3371 157.477 35.0126C158.901 36.6965 159.883 39.3806 159.768 39.7724C159.653 40.1642 155.204 37.7551 153.586 37.8718C151.968 37.9885 152.136 39.3889 152.136 39.3889C152.136 39.3889 149.615 34.8709 152.427 32.5619Z" fill="url(#paint8_linear_90_848)"/>
<path fill-rule="evenodd" clip-rule="evenodd" d="M176.164 26.7268C175.572 27.1019 176.58 30.953 178.782 32.5619C178.782 32.5619 184.548 32.2368 187.573 32.5619C190.606 32.887 195.063 34.9042 195.293 34.7375C195.532 34.5708 192.737 29.6943 188.581 27.452C185.238 25.6515 177.411 25.9349 176.164 26.7268Z" fill="url(#paint9_linear_90_848)"/>
<path d="M195.319 46.1659C195.417 46.5744 193.798 47.7998 191.835 48.7C190.986 49.1085 190.084 49.4419 189.217 49.642C189.164 49.6586 189.102 49.6586 189.049 49.6753C188.368 49.817 187.449 49.9254 186.449 49.9754C185.415 50.0254 184.283 50.0254 183.23 49.9921C180.975 49.9254 179.038 49.6586 178.888 49.2335C178.304 47.3329 178.534 40.5643 183.708 39.8891C190.217 39.0388 195.187 45.5491 195.319 46.1659Z" fill="#FFEBED"/>
<path d="M163.234 52.3178C163.252 52.4761 163.234 52.6512 163.181 52.8179C163.102 53.193 162.916 53.5598 162.633 53.9182C161.899 54.9102 160.563 55.8355 159.361 56.5274C158.91 56.7774 158.459 56.9858 158.078 57.1442C157.495 57.3943 157.044 57.536 156.814 57.536C155.576 57.536 154.346 48.5416 155.965 46.5577C156.92 45.3907 159.237 46.8078 161.006 48.65C161.775 49.4669 162.456 50.3505 162.827 51.1508C163.066 51.5759 163.199 51.9843 163.234 52.3178Z" fill="#FFEBED"/>
<path d="M155.567 54.5267C155.567 54.5267 155.956 58.0528 156.779 58.3195C157.601 58.5946 162.377 55.0519 162.793 53.6848C162.793 53.6848 160.21 56.8691 157.265 57.3109C155.912 57.5193 155.567 54.5267 155.567 54.5267Z" fill="#EC7C82"/>
<path d="M192.268 46.7911C192.268 47.4663 192.118 48.1249 191.835 48.7084C190.986 49.1168 190.084 49.4503 189.217 49.6503C189.164 49.667 189.102 49.667 189.049 49.6837C188.368 49.8254 187.449 49.9337 186.449 49.9838C185.415 50.0338 184.283 50.0338 183.23 50.0004C182.425 49.1502 181.93 48.0332 181.93 46.7911C181.93 44.1153 184.247 41.9314 187.104 41.9314C189.951 41.9314 192.268 44.107 192.268 46.7911Z" fill="#704061"/>
<path d="M190.951 46.7911C190.951 48.0165 190.252 49.0751 189.217 49.6503C189.164 49.667 189.102 49.667 189.049 49.6836C188.368 49.8254 187.449 49.9337 186.449 49.9837C184.981 49.6086 183.894 48.3166 183.894 46.7911C183.894 44.9656 185.477 43.4735 187.413 43.4735C189.368 43.4735 190.951 44.9572 190.951 46.7911Z" fill="#4A2039"/>
<path d="M163.172 52.8179C163.093 53.193 162.907 53.5598 162.624 53.9183C161.89 54.9102 160.555 55.8355 159.352 56.5274C158.901 56.7774 158.45 56.9858 158.07 57.1442C157.601 56.2356 157.318 55.0519 157.318 53.7182C157.318 50.8257 158.653 48.4833 160.272 48.4833C160.537 48.4833 160.776 48.5333 161.006 48.6417C161.775 49.4586 162.456 50.3422 162.827 51.1424C163.022 51.6676 163.137 52.2178 163.172 52.8179Z" fill="#704061"/>
<path d="M162.633 53.7182V53.9099C161.899 54.9019 160.564 55.8271 159.361 56.519C158.91 55.8605 158.609 54.8519 158.609 53.7182C158.609 51.7676 159.494 50.1505 160.608 50.1505C161.731 50.1588 162.633 51.7676 162.633 53.7182Z" fill="#4A2039"/>
<path d="M182.867 44.8655C183.366 44.8655 183.769 44.4849 183.769 44.0153C183.769 43.5457 183.366 43.165 182.867 43.165C182.369 43.165 181.965 43.5457 181.965 44.0153C181.965 44.4849 182.369 44.8655 182.867 44.8655Z" fill="white"/>
<path d="M178.923 44.9239C178.923 44.9239 179.312 39.9974 183.77 39.2139C188.227 38.4303 193.17 43.4735 193.17 43.4735C193.17 43.4735 182.868 39.4473 178.923 44.9239Z" fill="#EC7C82"/>
<path d="M178.923 44.9239C178.923 44.9239 179.763 42.4732 183.77 41.9313C187.785 41.3895 193.029 42.1064 194.462 44.9239C194.462 44.9239 190.199 42.0064 185.025 42.3398C179.861 42.6732 178.923 44.9239 178.923 44.9239Z" fill="#702039"/>
<path d="M162.837 51.1507C162.837 51.1507 159.751 45.3073 157.062 45.7908C155.205 46.1243 155.249 49.1835 155.249 49.1835C155.249 49.1835 158.963 47.0162 162.837 51.1507Z" fill="#EC7C82"/>
<path d="M162.615 50.7423C162.615 50.7423 159.405 47.5413 156.451 47.6997C153.506 47.8664 155.434 53.6932 155.434 53.6932C155.434 53.6932 154.904 49.642 156.849 48.9251C159.122 48.0748 162.615 50.7423 162.615 50.7423Z" fill="#702039"/>
<path d="M156.319 60.6369C156.319 60.6369 159.662 59.2532 164.119 59.2948C168.576 59.3365 172.184 59.3782 174.059 58.9197C174.059 58.9197 173.166 60.6036 172.007 61.3121C172.007 61.3121 168.09 61.5205 168.841 63.0376C168.841 63.0376 167.506 64.7215 164.296 65.0549C161.086 65.38 156.849 62.9459 156.319 60.6369Z" fill="#CB5F7D"/>
<path d="M168.841 63.0293C168.841 63.0293 169.867 61.3872 172.007 61.3038C172.007 61.3121 167.639 60.1284 168.841 63.0293Z" fill="#9F4A8B"/>
<path d="M156.319 60.6369C156.319 60.6369 159.529 55.7271 163.986 53.6932C168.443 51.6509 170.318 59.2865 170.318 59.2865C170.318 59.2865 166.294 59.2031 162.837 59.3198C159.379 59.4365 156.319 60.6369 156.319 60.6369Z" fill="#FFBCAF"/>
<path d="M160.254 73.1573C160.254 73.1573 160.475 74.2827 161.545 74.2827C162.615 74.2827 173.166 72.7572 177.083 70.7733C181.001 68.7894 182.867 65.0799 182.867 65.0799H183.327C183.327 65.0799 179.542 70.2565 176.906 71.7736C174.28 73.2824 164.295 75.6414 162.199 75.3413C160.103 75.0412 160.254 73.1573 160.254 73.1573Z" fill="#CB5F7D"/>
<path opacity="0.6" d="M181.188 63.0293C181.188 63.0293 185.424 63.4877 186.697 66.3469C186.697 66.3469 182.788 66.2302 181.559 67.3139C181.559 67.3222 182.346 65.5133 181.188 63.0293Z" fill="url(#paint10_linear_90_848)"/>
<path opacity="0.6" d="M214.598 71.1901L216.031 99.8653L174.952 127.874C174.952 127.874 171.768 102.566 170.928 102.099C170.097 101.657 158.229 99.8653 156.548 98.1814C171.415 99.6902 190.216 93.2883 190.216 93.2883C190.216 93.2883 191.605 86.0862 194.47 77.6837C197.309 69.2978 205.869 51.826 205.869 51.826C204.269 47.7247 199.546 46.7161 199.546 46.7161C187.422 50.6923 179.188 55.0186 175.996 51.1508C172.777 47.2829 174.05 30.4363 174.05 30.4363C163.721 28.4357 158.6 34.7459 158.6 34.7459C158.6 34.7459 163.756 49.6253 163.225 52.3261C162.695 55.0186 157.565 58.9781 156.301 58.9281C155.063 58.8781 154.382 57.5443 154.382 57.5443C154.567 57.0108 154.665 56.519 154.647 56.0689C154.532 53.6182 151.561 38.3886 151.791 35.0126C152.038 31.6616 160.236 14.5065 160.236 14.5065C171.335 13.2311 187.201 12.9811 197.043 16.7739L201.35 18.9578L209.292 23.0174L215.73 41.748C215.73 41.748 214.58 47.0495 213.926 52.7596C213.546 56.0022 213.342 59.3949 213.608 62.004C214.306 68.9227 218.277 75.4163 218.516 75.8248C217.181 75.3997 214.598 71.1901 214.598 71.1901Z" fill="url(#paint11_linear_90_848)"/>
<path opacity="0.82" d="M216.04 58.9114C216.04 58.9114 219.958 50.0504 221.744 49.3752C223.531 48.7 227.678 51.8843 228.695 54.1433C229.712 56.4023 226.467 66.7637 226.467 66.7637C226.467 66.7637 228.253 58.0278 227.891 56.5107C227.528 54.9936 223.301 53.5265 222.054 53.9933C222.054 53.9933 224.282 56.3773 224.371 58.0195C224.459 59.6616 221.744 64.0296 221.47 64.0713C221.205 64.1129 219.241 63.021 219.241 63.021C219.241 63.021 219.197 61.2121 218.843 60.4202C218.49 59.6283 216.04 58.9114 216.04 58.9114Z" fill="url(#paint12_linear_90_848)"/>
<path opacity="0.6" d="M216.031 99.8736L174.952 127.882L174.899 127.44L174.846 127.032L174.714 126.073L172.246 108.393C171.698 104.883 171.194 102.258 170.929 102.116C170.097 101.674 158.229 99.8819 156.549 98.1981C174.422 99.2067 190.217 93.305 190.217 93.305C190.217 93.305 206.418 89.6372 208.187 87.2782C209.973 84.9358 214.607 71.2067 214.607 71.2067L216.031 99.8736Z" fill="url(#paint13_linear_90_848)"/>
<path opacity="0.5" d="M170.929 102.108C170.929 102.108 203.2 91.7212 205.605 90.2958C208.01 88.8703 208.187 87.2615 208.187 87.2615C208.187 87.2615 184.513 98.7733 156.558 98.1898C156.549 98.1898 158.893 100.224 170.929 102.108Z" fill="#BB61C0"/>
<path fill-rule="evenodd" clip-rule="evenodd" d="M217.95 46.5744C217.216 50.2421 212.892 54.8435 212.892 54.8435C211.353 46.0992 204.579 32.4452 204.579 32.4452C204.579 32.4452 203.977 27.0686 202.545 24.0343C201.13 21.0168 184.725 14.9733 179.737 14.4065C174.731 13.8396 164.048 17.5491 164.048 17.5491L160.608 15.9736L154.152 28.0855L148.599 11.2722L141.108 10.722C149.067 5.67053 163.447 5.12036 163.447 5.12036L160.714 1.53596C161.05 1.51929 161.369 1.51929 161.714 1.51929C172.945 1.36091 176.633 4.00336 176.633 4.00336C182.823 2.42789 190.217 1.50262 190.217 1.50262C190.217 1.50262 200.776 14.0814 206.118 16.7738C211.459 19.4496 218.596 23.1591 220.02 26.8518C221.453 30.5196 217.95 46.5744 217.95 46.5744Z" fill="url(#paint14_linear_90_848)"/>
<path opacity="0.6" d="M160.254 73.1573C160.254 73.1573 160.484 73.4407 160.838 73.4907C161.191 73.5491 160.838 72.6488 168.832 71.4151C176.827 70.1814 177.313 69.9897 178.516 69.4812C179.719 68.9727 182.761 65.4217 182.761 65.4217C182.761 65.4217 180.329 69.4479 176.756 71.1901C173.192 72.9322 163.323 74.8328 161.748 74.6911C160.183 74.5577 160.254 73.1573 160.254 73.1573Z" fill="url(#paint15_linear_90_848)"/>
<path opacity="0.5" d="M217.95 46.5744C217.216 50.2422 212.892 54.8435 212.892 54.8435C211.353 46.0993 204.579 32.4452 204.579 32.4452C204.579 32.4452 203.977 27.0686 202.545 24.0344C201.13 21.0168 184.725 14.9733 179.737 14.4065C174.731 13.8397 164.048 17.5491 164.048 17.5491L160.608 15.9736L154.152 28.0856L148.599 11.2722L141.108 10.7221C158.459 6.12902 174.059 8.12962 174.059 8.12962L163.447 5.11205L160.714 1.52765C161.05 1.51098 161.369 1.51098 161.714 1.51098C179.914 1.56099 197.389 17.7908 201.607 20.2249C205.879 22.6923 220.029 26.8435 220.029 26.8435C221.453 30.5196 217.95 46.5744 217.95 46.5744Z" fill="#7A4AC0"/>
<path opacity="0.5" d="M237.778 307.936L213.139 343.955L218.773 325.766L178.879 320.973L158.972 329.184L132.229 316.947L127.268 319.823L131.424 304.868L235.045 288.28L244.782 294.49L237.778 307.936Z" fill="#935B9D"/>
<path opacity="0.2" d="M190.217 1.48595C190.217 1.48595 189.014 8.04624 192.799 12.3225C196.593 16.5988 209.699 18.5994 209.699 18.5994C209.699 18.5994 206.639 17.3657 202.837 14.8483C199.043 12.3308 190.217 1.48595 190.217 1.48595Z" fill="#D6A49E"/>
<path fill-rule="evenodd" clip-rule="evenodd" d="M197.044 16.7738C197.044 16.7738 178.684 2.49459 173.962 0.644038C169.239 -1.20651 160.705 1.5193 160.705 1.5193C160.705 1.5193 172.98 -0.19788 197.044 16.7738Z" fill="url(#paint16_linear_90_848)"/>
<path opacity="0.33" d="M204.57 32.4369C204.57 32.4369 212.494 40.5226 218.516 42.0231L219.648 37.23C219.648 37.23 212.901 37.1466 204.57 32.4369Z" fill="url(#paint17_linear_90_848)"/>
<path opacity="0.33" d="M220.037 34.3374C220.037 34.3374 214.775 36.2463 204.066 29.2192L203.535 26.8935C203.535 26.8935 211.875 31.5032 220.347 30.4196C220.356 30.4279 220.471 33.2871 220.037 34.3374Z" fill="url(#paint18_linear_90_848)"/>
<path fill-rule="evenodd" clip-rule="evenodd" d="M130.15 304.876L136.085 304.468L153.206 274.201L134.104 182.957L109.642 278.043L130.15 304.876Z" fill="url(#paint19_radial_90_848)"/>
<path fill-rule="evenodd" clip-rule="evenodd" d="M256.058 284.17L256.041 284.187C255.236 286.012 244.791 294.49 244.791 294.49C244.791 294.49 237.911 292.931 229.766 294.131C221.621 295.332 183.018 305.902 183.018 305.902C183.018 305.902 170.62 312.704 166.498 314.079C165.915 314.287 165.49 314.363 165.305 314.304C163.775 313.829 153.587 306.26 153.587 306.26L133.582 304.209V302.651C133.582 302.651 130.62 297.724 130.213 295.524C130.151 295.315 130.133 295.123 130.151 294.973C130.275 293.165 139.189 285.012 139.189 285.012L139.172 284.862L139.154 284.687C138.57 280.886 133.123 245.017 131.451 220.46L131.433 220.134C131.212 216.75 131.053 213.599 130.991 210.765V210.69C130.929 207.039 131.009 203.963 131.318 201.696C133.6 184.165 157.673 131.933 157.673 131.933L159.83 120.163L172.335 108.701L173.405 116.062C173.405 116.062 168.886 121.022 168.63 122.58C168.391 124.139 172.963 147.063 172.963 147.063L178.305 125.223C178.305 125.223 208.108 104.45 211.778 100.357C215.448 96.2892 217.544 91.9546 217.544 91.9546L218.65 90.9126L228.616 98.915L241.44 102.466L238.937 190.651L253.034 251.06L246.321 273.359C246.321 273.359 256.828 282.361 256.058 284.17Z" fill="url(#paint20_linear_90_848)"/>
<path fill-rule="evenodd" clip-rule="evenodd" d="M159.83 120.171L154.992 142.861C154.992 142.861 159.706 127.49 162.89 122.93L172.954 147.063C172.954 147.063 167.674 124.381 168.62 122.572C169.567 120.763 173.387 116.07 173.387 116.07L172.317 108.701C172.317 108.693 161.616 116.804 159.83 120.171Z" fill="url(#paint21_linear_90_848)"/>
<path fill-rule="evenodd" clip-rule="evenodd" d="M172.945 147.063C172.945 147.063 166.736 124.881 166.922 123.172C167.117 121.463 173.06 113.811 173.06 113.811L174.961 127.974L178.295 125.214L172.945 147.063Z" fill="url(#paint22_linear_90_848)"/>
<path opacity="0.5" fill-rule="evenodd" clip-rule="evenodd" d="M256.057 284.17C255.288 285.954 244.782 294.49 244.782 294.49C244.782 294.49 237.901 292.931 229.756 294.132C221.611 295.332 183.009 305.902 183.009 305.902C183.009 305.902 166.833 314.779 165.304 314.304C163.774 313.829 153.586 306.26 153.586 306.26L133.581 304.21V302.651C133.581 302.651 130.619 297.724 130.212 295.524L145.052 301.034L144.026 296.057C144.026 296.057 162.562 312.67 164.923 312.687C167.285 312.687 200.298 293.998 201.324 293.431L196.265 299.625L238.936 277.552V265.781L224.538 266.507C208.726 281.086 166.922 298.499 164.322 299.566C185.273 287.455 229.579 250.427 229.579 250.427V239.857C224.963 231.204 209.752 216.1 209.752 216.1C202.756 225.544 175.827 246.401 174.987 247.042C175.836 245.842 211.547 196.077 211.768 189.442C211.989 182.715 206.948 164.768 206.948 164.768C200.714 169.669 192.754 173.929 186.803 176.797C186.139 177.122 185.511 177.405 184.91 177.688C184.45 177.897 183.999 178.089 183.575 178.297C183.168 178.505 182.77 178.68 182.407 178.83C182.142 178.922 181.921 179.039 181.682 179.156C181.222 179.364 180.771 179.556 180.409 179.706C179.1 180.256 178.33 180.581 178.33 180.581C178.33 180.581 178.401 180.514 178.551 180.431C199.307 168.452 202.73 148.363 203.11 147.104C203.128 147.088 203.128 147.063 203.128 147.046C203.128 147.046 202.783 147.163 202.182 147.371L193.771 150.164C193.771 150.164 192.666 150.58 190.95 151.206C190.871 151.247 190.791 151.264 190.685 151.297C185.379 153.24 174.934 156.941 172.794 156.849C172.715 156.849 172.653 156.849 172.591 156.832C170.654 156.315 166.117 153.281 165.551 152.898C165.507 152.881 165.489 152.856 165.489 152.856C165.489 152.856 165.631 153.481 165.87 154.398C165.914 154.548 165.949 154.723 166.011 154.89C166.153 155.382 166.294 155.957 166.453 156.524C166.497 156.657 166.533 156.791 166.577 156.924C166.657 157.191 166.763 157.457 166.816 157.724C167.382 159.566 168.045 161.3 168.531 161.7C169.681 162.592 190.207 164.209 190.207 164.209C190.207 164.209 168.912 172.687 166.895 172.495C164.897 172.32 153.179 158.274 153.179 158.274C145.653 166.902 145.034 187.983 145.034 187.983C145.538 212.09 165.162 268.774 165.763 270.541C148.058 250.735 138.401 219.918 138.401 219.918C138.401 219.918 136.367 239.115 139.047 248.485C141.726 257.854 162.359 282.228 164.012 282.453C165.666 282.703 180.064 282.453 180.064 282.453C180.064 282.453 156.876 291.214 151.631 290.022C146.387 288.822 139.171 284.987 139.171 284.987L139.153 284.837L139.135 284.662C138.552 280.861 133.104 244.992 131.432 220.435L131.415 220.109L130.973 210.74V210.665C133.732 191.693 147.006 159.741 152.931 146.146V146.129C154.665 142.12 155.779 139.719 155.779 139.719L162.88 122.914L162.721 119.913L170.972 110.277L172.325 108.676L172.423 109.376L173.387 116.028C173.387 116.028 175.2 126.29 174.943 127.849C175.323 127.682 178.127 124.748 178.295 125.189C178.295 125.189 208.098 104.417 211.768 100.324C215.438 96.2559 217.534 91.9212 217.534 91.9212L218.64 90.8793L228.606 98.8817L240.422 102.149L241.43 102.433L238.927 190.617L253.024 251.027L246.311 273.325C246.32 273.359 256.827 282.361 256.057 284.17Z" fill="url(#paint23_linear_90_848)"/>
<path fill-rule="evenodd" clip-rule="evenodd" d="M288.992 336.861L292.803 346.705C292.803 346.705 281.855 354.383 271.525 349.706C271.525 349.706 252.167 277.093 249.885 273.117C247.586 269.124 216.589 184.841 215.359 175.263C211.769 147.171 223.805 101.282 227.174 96.6226L229.757 95.5556L229.819 95.5973C230.42 95.9808 235.381 98.9817 237.902 99.9903C240.581 101.074 274.426 103.125 280.413 105.75C280.431 105.792 280.458 105.842 280.493 105.925L281.846 108.701C281.846 108.701 281.766 108.701 281.581 108.743C280.511 108.876 276.098 109.868 266.175 116.462C254.581 124.139 252.299 134.826 251.919 136.626C251.716 137.576 255.775 157.591 259.604 176.088C260.772 181.731 261.921 187.225 262.929 192.018C263.938 196.827 264.804 200.937 265.37 203.671C265.874 206.064 266.175 207.456 266.175 207.456C266.175 207.456 266.034 208.022 265.795 209.014L265.574 209.923C263.513 218.384 256.845 245.85 257.004 247.067C257.084 247.601 261.523 257.671 267.245 270.883C270.093 277.402 273.232 284.704 276.336 291.981C280.29 301.242 284.137 310.478 287.17 318.097C287.267 318.364 287.373 318.614 287.471 318.872C290.177 325.774 292.149 331.251 292.794 334.077L290.637 335.652L288.992 336.861Z" fill="url(#paint24_linear_90_848)"/>
<path opacity="0.5" fill-rule="evenodd" clip-rule="evenodd" d="M236.38 102.108C226.033 123.231 211.812 159.95 206.948 164.776C202.898 168.802 193.683 173.579 186.803 176.805C186.139 177.13 185.511 177.413 184.91 177.697C184.45 177.905 183.999 178.097 183.575 178.305C183.168 178.48 182.77 178.664 182.407 178.839C182.142 178.93 181.921 179.047 181.682 179.164C181.222 179.356 180.798 179.547 180.409 179.714C179.1 180.264 178.33 180.589 178.33 180.589C178.33 180.589 178.41 180.531 178.551 180.439C180.754 179.014 198.459 166.96 203.11 147.113C203.128 147.096 203.128 147.071 203.128 147.054C203.128 147.054 202.783 147.171 202.182 147.379C200.307 148.03 195.85 149.563 190.95 151.222C190.871 151.264 190.791 151.281 190.685 151.314C183.018 153.898 174.351 156.732 172.794 156.866C172.697 156.866 172.635 156.866 172.591 156.849C171.521 156.432 166.215 153.315 165.551 152.914C165.507 152.898 165.489 152.873 165.489 152.873C165.489 152.873 165.631 153.498 165.87 154.415C165.914 154.565 165.949 154.74 166.011 154.907C166.153 155.398 166.294 155.974 166.453 156.54C166.498 156.674 166.533 156.807 166.577 156.941C166.657 157.207 166.763 157.474 166.816 157.741C167.364 159.416 167.983 161.033 168.532 161.717C168.532 161.717 155.505 152.748 153.188 147.179C153.064 146.896 152.984 146.554 152.923 146.171V146.154C151.897 139.044 160.926 116.328 160.926 116.328L170.946 110.302L172.396 109.41L173.36 116.062C173.36 116.062 175.173 126.323 174.917 127.882C175.297 127.715 178.1 124.781 178.268 125.223C178.268 125.223 208.072 104.45 211.742 100.357C215.412 96.2892 217.508 91.9546 217.508 91.9546L218.613 90.9126L228.58 98.915L236.38 102.108Z" fill="url(#paint25_linear_90_848)"/>
<path fill-rule="evenodd" clip-rule="evenodd" d="M158.972 124.173L145.052 137.577C145.052 137.577 130.275 156.782 130.151 159.666C130.027 162.551 134.484 174.913 134.36 175.871C134.237 176.83 115.382 199.403 114.745 201.087C114.108 202.771 105.512 279.127 105.512 283.803C105.512 288.488 130.16 304.876 130.16 304.876V301.634C130.16 301.634 113.604 278.76 113.091 275.518C112.579 272.275 134.741 198.078 137.42 189.075C140.091 180.073 157.407 135.568 157.407 135.568L158.972 124.173Z" fill="url(#paint26_linear_90_848)"/>
<path opacity="0.5" d="M283.146 317.155L290.645 335.669L288.991 336.869C285.321 325.766 272.834 302.992 262.107 284.345C261.258 282.845 266.184 278.585 265.335 277.143C257.331 263.322 245.083 255.528 245.083 255.528C245.083 255.528 237.504 210.423 236.407 199.353C235.337 188.275 242.094 151.739 240.82 149.338C239.547 146.946 228.474 141.661 227.953 138.827C227.466 136.109 236.628 126.507 237.185 125.923L220.303 137.577C222.726 123.889 229.739 95.564 229.739 95.564L229.801 95.6057L237.884 99.9986L242.854 108.701L251.256 115.078C263.292 109.493 279.352 105.992 280.36 105.784C280.378 105.767 280.404 105.767 280.404 105.767C280.422 105.809 280.448 105.859 280.484 105.942L281.837 108.718C281.837 108.718 281.757 108.718 281.572 108.76C285.259 118.854 295.713 149.897 296.535 153.815C296.615 154.173 296.898 154.857 297.34 155.807C296.712 155.407 286.551 148.888 282.597 148.888C278.521 148.888 268.342 156.324 262.629 167.135C261.054 170.12 260.108 173.22 259.586 176.105C258.216 183.69 259.631 190 259.631 190L262.92 192.034L305.918 218.626C293.979 211.365 274.134 205.872 265.361 203.688C262.62 202.988 260.948 202.621 260.948 202.621L265.786 209.031L265.565 209.94L256.995 247.084L253.749 241.174L256.093 250.335L266.016 274.876L271.782 289.097L283.013 316.872L283.146 317.155Z" fill="url(#paint27_linear_90_848)"/>
<path fill-rule="evenodd" clip-rule="evenodd" d="M178.295 125.214C178.295 125.214 189.889 134.701 194.983 147.188C194.983 147.188 217.782 115.495 220.71 111.41C223.637 107.326 231.985 99.8652 231.985 99.8652L218.64 90.9126L217.526 91.9712L178.295 125.214Z" fill="url(#paint28_linear_90_848)"/>
<path opacity="0.5" d="M238.715 124.173L231.994 142.803C231.994 142.803 224.38 140.127 225.812 137.568C227.245 135.017 238.715 124.173 238.715 124.173Z" fill="#935B9D"/>
<path opacity="0.5" fill-rule="evenodd" clip-rule="evenodd" d="M253.758 241.157L256.102 250.318L264.185 276.41L245.092 255.528C245.092 255.528 236.841 206.564 236.416 199.353C236.416 199.353 244.596 228.52 247.842 231.038L253.75 216.208L260.073 207.264L253.758 193.226L265.795 209.006L257.004 247.059L253.758 241.157Z" fill="#935B9D"/>
<path opacity="0.6" fill-rule="evenodd" clip-rule="evenodd" d="M194.471 77.6836C194.471 77.6836 201.811 66.0135 204.579 61.9956C207.347 57.9778 209.708 52.8179 209.708 52.8179L205.879 51.8259C205.87 51.8259 197.31 68.1308 194.471 77.6836Z" fill="url(#paint29_linear_90_848)"/>
<path opacity="0.5" fill-rule="evenodd" clip-rule="evenodd" d="M256.04 284.187C255.235 286.012 244.791 294.49 244.791 294.49C244.791 294.49 237.911 292.931 229.766 294.132C221.621 295.332 183.018 305.902 183.018 305.902C183.018 305.902 170.619 312.704 166.498 314.079L165.304 314.304C165.304 314.304 190.146 298.908 201.324 293.431L196.284 299.608C197.451 299 234.921 279.652 240.21 278.944C244.322 278.394 252.485 282.328 256.04 284.187Z" fill="url(#paint30_linear_90_848)"/>
<path opacity="0.5" fill-rule="evenodd" clip-rule="evenodd" d="M133.582 304.21V302.651C133.582 302.651 130.62 297.724 130.213 295.524C130.151 295.315 130.133 295.123 130.151 294.973L145.053 301.034L144.027 296.057L153.587 306.268L133.582 304.21Z" fill="url(#paint31_linear_90_848)"/>
<path opacity="0.5" fill-rule="evenodd" clip-rule="evenodd" d="M216.509 180.081L211.769 189.45C211.769 189.45 189.341 229.887 174.988 247.051C174.988 247.051 209.832 221.81 221.196 198.603L216.509 180.081Z" fill="url(#paint32_linear_90_848)"/>
<path opacity="0.5" fill-rule="evenodd" clip-rule="evenodd" d="M145.052 191.359L138.419 219.934C138.419 219.934 135.634 260.438 137.031 270.158C137.031 270.158 130.911 225.194 130.973 210.673C130.973 210.673 140.285 180.022 148.837 157.799C148.846 157.808 144.247 185.783 145.052 191.359Z" fill="url(#paint33_linear_90_848)"/>
<path fill-rule="evenodd" clip-rule="evenodd" d="M171.229 140.727V147.838L166.922 159.183L166.913 172.512C166.913 172.512 164.782 201.145 164.181 206.73C163.579 212.315 171.22 278.894 171.22 278.894L164.03 282.478L165.304 287.488C165.304 287.488 161.36 298.333 160.971 299.408C160.59 300.492 165.304 314.296 165.304 314.296C165.304 314.296 161.634 301.317 161.678 299.333C161.722 297.349 167.922 286.679 167.922 286.679L165.313 282.545C165.313 282.545 172.671 279.16 173.812 277.268C174.961 275.376 164.322 218.484 164.8 206.239C165.277 193.993 172.954 147.046 172.954 147.046L171.229 140.727Z" fill="url(#paint34_linear_90_848)"/>
<path opacity="0.5" fill-rule="evenodd" clip-rule="evenodd" d="M193.923 278.894L229.58 250.427L236.549 241.166L243.598 257.829L224.54 266.515L193.923 278.894Z" fill="url(#paint35_linear_90_848)"/>
<path fill-rule="evenodd" clip-rule="evenodd" d="M245.082 261.155C245.082 261.155 240.97 252.144 235.744 239.14C228.421 221.001 218.923 195.135 215.359 175.271C209.248 141.186 227.174 96.631 227.174 96.631L224.53 94.8638L229.756 95.564L237.901 99.9903C237.901 99.9903 242.482 117.045 242.482 119.038C242.482 121.03 226.829 136.126 227.961 138.827C229.111 141.544 240.307 147.171 240.829 149.338C241.35 151.506 237.84 176.505 236.371 195.569C235.646 205.097 245.082 261.155 245.082 261.155Z" fill="url(#paint36_linear_90_848)"/>
<path opacity="0.76" fill-rule="evenodd" clip-rule="evenodd" d="M158.972 124.173C158.972 124.173 143.142 164.043 137.031 178.005C130.92 191.968 107.148 283.628 107.148 283.628L110.889 282.245L124.606 293.831C124.606 293.831 114.869 278.227 115.055 274.801C115.249 271.383 118.592 266.515 118.592 266.515C118.592 266.515 128.179 277.393 130.213 278.885C132.256 280.377 138.818 282.478 138.818 282.478C138.818 282.478 130.089 221.652 130.982 210.673C131.875 199.695 157.407 135.568 157.407 135.568L158.972 124.173Z" fill="url(#paint37_linear_90_848)"/>
<path opacity="0.78" fill-rule="evenodd" clip-rule="evenodd" d="M245.082 261.155C245.082 261.155 240.97 252.144 235.743 239.14C234.355 229.354 232.842 218.367 231.993 210.873C230.074 194.302 240.324 151.739 239.431 148.98C238.547 146.221 225.794 139.627 225.794 137.576C225.794 135.543 239.546 120.655 240.413 117.879C241.279 115.12 236.557 105.75 236.557 105.75C236.557 105.75 222.805 124.439 220.302 149.088C217.861 173.095 225.608 204.938 226.033 206.647C225.431 204.955 215.845 177.313 216.013 157.791C216.172 137.643 229.747 95.5556 229.747 95.5556L237.892 99.982C237.892 99.982 242.473 117.037 242.473 119.029C242.473 121.022 226.82 136.118 227.952 138.819C229.102 141.536 240.298 147.163 240.819 149.33C241.341 151.497 237.83 176.496 236.362 195.56C235.646 205.097 245.082 261.155 245.082 261.155Z" fill="url(#paint38_linear_90_848)"/>
<path d="M286.365 300.934C286.365 300.934 283.42 305.802 282.35 311.903C280.413 323.065 264.645 342.871 264.645 342.871C264.645 342.871 258.41 341.196 254.846 335.302C252.45 331.368 246.118 320.723 242.2 314.146C242.156 314.087 242.12 314.054 242.103 314.012C240.431 311.145 239.202 309.086 238.981 308.711C238.963 308.694 238.937 308.669 238.937 308.652C238.937 308.652 241.864 296.299 243.916 294.323C244.437 293.806 245.472 293.315 246.737 292.856C250.327 291.547 255.81 290.497 257.146 289.93C258.923 289.172 262.611 282.478 262.611 282.478C274.974 283.087 286.365 300.934 286.365 300.934Z" fill="url(#paint39_linear_90_848)"/>
<path opacity="0.5" d="M119.697 411.992L123.668 354.391C119.414 370.954 117.168 392.027 116.009 411.992H119.697Z" fill="url(#paint40_linear_90_848)"/>
<path opacity="0.5" d="M253.749 101.874L241.439 113.803H239.909L216.04 135.743L203.119 147.113C203.119 147.113 178.374 155.949 172.608 156.849L165.569 152.914L156.027 151.189L153.205 147.179V142.811L139.913 144.437L133.06 145.854L158.971 124.181L160.944 116.329L172.423 109.41L170.928 102.116C170.928 102.116 159.263 100.465 156.548 98.1981C156.548 98.1981 181.39 99.7486 208.178 87.2699L214.598 71.1984L215.553 93.3383L218.64 90.9043L224.53 94.8638L229.756 95.564L237.901 99.9903L253.749 101.874Z" fill="#7A4AC0"/>
<defs>
<radialGradient id="paint0_radial_90_848" cx="0" cy="0" r="1" gradientTransform="matrix(20.5798 -3.32616 3.5288 19.398 57.4756 281.823)" gradientUnits="userSpaceOnUse">
<stop stop-color="#543C79"/>
<stop offset="0.9888" stop-color="#432160"/>
</radialGradient>
<linearGradient id="paint1_linear_90_848" x1="66.9854" y1="282.406" x2="44.3986" y2="286.515" gradientUnits="userSpaceOnUse">
<stop stop-color="#BDB3E7"/>
<stop offset="0.6458" stop-color="#B2AEEB"/>
<stop offset="1" stop-color="#AAAAEE"/>
</linearGradient>
<linearGradient id="paint2_linear_90_848" x1="70.8259" y1="318.107" x2="-4.6323" y2="308.07" gradientUnits="userSpaceOnUse">
<stop stop-color="#FF9595"/>
<stop offset="0.984" stop-color="#FFC2A9"/>
</linearGradient>
<linearGradient id="paint3_linear_90_848" x1="75.3938" y1="278.056" x2="43.942" y2="283.778" gradientUnits="userSpaceOnUse">
<stop stop-color="#DEDFFF"/>
<stop offset="1" stop-color="white"/>
</linearGradient>
<radialGradient id="paint4_radial_90_848" cx="0" cy="0" r="1" gradientTransform="matrix(79.8682 -12.9085 13.6949 75.2819 102.678 206.466)" gradientUnits="userSpaceOnUse">
<stop stop-color="#543C79"/>
<stop offset="0.9888" stop-color="#432160"/>
</radialGradient>
<linearGradient id="paint5_linear_90_848" x1="37.2106" y1="268.785" x2="85.9285" y2="259.922" gradientUnits="userSpaceOnUse">
<stop offset="0.0112" stop-color="#4B2B67"/>
<stop offset="1" stop-color="#594591"/>
</linearGradient>
<linearGradient id="paint6_linear_90_848" x1="193.37" y1="644.543" x2="193.37" y2="285.122" gradientUnits="userSpaceOnUse">
<stop offset="0.0112" stop-color="#4B1567"/>
<stop offset="1" stop-color="#4F3885"/>
</linearGradient>
<linearGradient id="paint7_linear_90_848" x1="190.224" y1="127.878" x2="190.224" y2="13.6612" gradientUnits="userSpaceOnUse">
<stop offset="0.016" stop-color="#FFC2A9"/>
<stop offset="1" stop-color="#FF9595"/>
</linearGradient>
<linearGradient id="paint8_linear_90_848" x1="155.434" y1="39.8162" x2="155.434" y2="32.5598" gradientUnits="userSpaceOnUse">
<stop offset="0.00558659" stop-color="#651D4F"/>
<stop offset="1" stop-color="#93364F"/>
</linearGradient>
<linearGradient id="paint9_linear_90_848" x1="185.654" y1="34.7422" x2="185.654" y2="26.1095" gradientUnits="userSpaceOnUse">
<stop offset="0.00558659" stop-color="#651D4F"/>
<stop offset="1" stop-color="#93364F"/>
</linearGradient>
<linearGradient id="paint10_linear_90_848" x1="181.186" y1="65.175" x2="186.691" y2="65.175" gradientUnits="userSpaceOnUse">
<stop stop-color="#FFEADB"/>
<stop offset="0.9944" stop-color="#C27CB6"/>
</linearGradient>
<linearGradient id="paint11_linear_90_848" x1="185.148" y1="127.878" x2="185.148" y2="13.6612" gradientUnits="userSpaceOnUse">
<stop stop-color="#FFEADB"/>
<stop offset="0.9944" stop-color="#C27CB6"/>
</linearGradient>
<linearGradient id="paint12_linear_90_848" x1="222.463" y1="66.7695" x2="222.463" y2="49.2874" gradientUnits="userSpaceOnUse">
<stop stop-color="#FFEADB"/>
<stop offset="0.9944" stop-color="#C27CB6"/>
</linearGradient>
<linearGradient id="paint13_linear_90_848" x1="186.293" y1="127.878" x2="186.293" y2="71.1925" gradientUnits="userSpaceOnUse">
<stop stop-color="#FFEADB"/>
<stop offset="0.9944" stop-color="#C27CB6"/>
</linearGradient>
<linearGradient id="paint14_linear_90_848" x1="180.735" y1="54.8394" x2="180.735" y2="1.48861" gradientUnits="userSpaceOnUse">
<stop offset="0.00558659" stop-color="#651D4F"/>
<stop offset="1" stop-color="#93364F"/>
</linearGradient>
<linearGradient id="paint15_linear_90_848" x1="160.249" y1="70.0636" x2="182.759" y2="70.0636" gradientUnits="userSpaceOnUse">
<stop stop-color="#FFEADB"/>
<stop offset="0.9944" stop-color="#C27CB6"/>
</linearGradient>
<linearGradient id="paint16_linear_90_848" x1="178.879" y1="16.7776" x2="178.879" y2="0.00709916" gradientUnits="userSpaceOnUse">
<stop offset="0.00558659" stop-color="#651D4F"/>
<stop offset="1" stop-color="#C46376"/>
</linearGradient>
<linearGradient id="paint17_linear_90_848" x1="204.573" y1="37.232" x2="219.651" y2="37.232" gradientUnits="userSpaceOnUse">
<stop/>
<stop offset="0.2749" stop-color="#4C3A39"/>
<stop offset="0.5289" stop-color="#8C6968"/>
<stop offset="0.7418" stop-color="#B98C8A"/>
<stop offset="0.9054" stop-color="#D6A19F"/>
<stop offset="1" stop-color="#E0A9A7"/>
</linearGradient>
<linearGradient id="paint18_linear_90_848" x1="203.536" y1="30.7377" x2="220.368" y2="30.7377" gradientUnits="userSpaceOnUse">
<stop/>
<stop offset="0.2749" stop-color="#4C3A39"/>
<stop offset="0.5289" stop-color="#8C6968"/>
<stop offset="0.7418" stop-color="#B98C8A"/>
<stop offset="0.9054" stop-color="#D6A19F"/>
<stop offset="1" stop-color="#E0A9A7"/>
</linearGradient>
<radialGradient id="paint19_radial_90_848" cx="0" cy="0" r="1" gradientUnits="userSpaceOnUse" gradientTransform="translate(131.426 243.917) scale(48.254 45.4831)">
<stop stop-color="#857CA4"/>
<stop offset="0.9829" stop-color="#72549F"/>
</radialGradient>
<linearGradient id="paint20_linear_90_848" x1="193.123" y1="314.319" x2="193.123" y2="90.907" gradientUnits="userSpaceOnUse">
<stop offset="0.0171" stop-color="#D8CFE4"/>
<stop offset="1" stop-color="#D6E0F9"/>
</linearGradient>
<linearGradient id="paint21_linear_90_848" x1="154.99" y1="127.878" x2="173.386" y2="127.878" gradientUnits="userSpaceOnUse">
<stop offset="0.0171" stop-color="#E8E3FC"/>
<stop offset="1" stop-color="#F5F4F9"/>
</linearGradient>
<linearGradient id="paint22_linear_90_848" x1="166.926" y1="130.434" x2="178.299" y2="130.434" gradientUnits="userSpaceOnUse">
<stop offset="0.0171" stop-color="#8268AA"/>
<stop offset="1" stop-color="#978DBF"/>
</linearGradient>
<linearGradient id="paint23_linear_90_848" x1="243.705" y1="295.08" x2="149.143" y2="121.315" gradientUnits="userSpaceOnUse">
<stop stop-color="#C2C8FF"/>
<stop offset="1" stop-color="#755CBB"/>
</linearGradient>
<linearGradient id="paint24_linear_90_848" x1="253.751" y1="351.224" x2="253.751" y2="95.5643" gradientUnits="userSpaceOnUse">
<stop offset="0.0112" stop-color="#4B1567"/>
<stop offset="1" stop-color="#4F3885"/>
</linearGradient>
<linearGradient id="paint25_linear_90_848" x1="194.621" y1="180.591" x2="194.621" y2="90.907" gradientUnits="userSpaceOnUse">
<stop stop-color="#C2C8FF"/>
<stop offset="1" stop-color="#755CBB"/>
</linearGradient>
<linearGradient id="paint26_linear_90_848" x1="105.507" y1="214.525" x2="158.976" y2="214.525" gradientUnits="userSpaceOnUse">
<stop offset="0.0112" stop-color="#4B2B67"/>
<stop offset="1" stop-color="#6B4F9F"/>
</linearGradient>
<linearGradient id="paint27_linear_90_848" x1="263.126" y1="336.864" x2="263.126" y2="95.5643" gradientUnits="userSpaceOnUse">
<stop stop-color="#CCD1FF"/>
<stop offset="1" stop-color="#754577"/>
</linearGradient>
<linearGradient id="paint28_linear_90_848" x1="178.299" y1="119.04" x2="231.99" y2="119.04" gradientUnits="userSpaceOnUse">
<stop offset="0.0171" stop-color="#E8E3FC"/>
<stop offset="1" stop-color="#F5F4F9"/>
</linearGradient>
<linearGradient id="paint29_linear_90_848" x1="194.469" y1="64.754" x2="209.703" y2="64.754" gradientUnits="userSpaceOnUse">
<stop stop-color="#FFEADB"/>
<stop offset="0.9944" stop-color="#C27CB6"/>
</linearGradient>
<linearGradient id="paint30_linear_90_848" x1="217.017" y1="309.604" x2="206.59" y2="290.443" gradientUnits="userSpaceOnUse">
<stop stop-color="#C2C8FF"/>
<stop offset="1" stop-color="#755CBB"/>
</linearGradient>
<linearGradient id="paint31_linear_90_848" x1="146.559" y1="310.086" x2="136.464" y2="291.535" gradientUnits="userSpaceOnUse">
<stop stop-color="#C2C8FF"/>
<stop offset="1" stop-color="#755CBB"/>
</linearGradient>
<linearGradient id="paint32_linear_90_848" x1="205.94" y1="230.201" x2="187.31" y2="195.968" gradientUnits="userSpaceOnUse">
<stop stop-color="#C2C8FF"/>
<stop offset="1" stop-color="#755CBB"/>
</linearGradient>
<linearGradient id="paint33_linear_90_848" x1="167.274" y1="253.71" x2="122.798" y2="171.981" gradientUnits="userSpaceOnUse">
<stop stop-color="#C2C8FF"/>
<stop offset="1" stop-color="#755CBB"/>
</linearGradient>
<linearGradient id="paint34_linear_90_848" x1="167.425" y1="314.3" x2="167.425" y2="140.729" gradientUnits="userSpaceOnUse">
<stop stop-color="#A7A7D6"/>
<stop offset="1" stop-color="#755CBB"/>
</linearGradient>
<linearGradient id="paint35_linear_90_848" x1="218.76" y1="278.892" x2="218.76" y2="241.162" gradientUnits="userSpaceOnUse">
<stop stop-color="#C2C8FF"/>
<stop offset="1" stop-color="#755CBB"/>
</linearGradient>
<linearGradient id="paint36_linear_90_848" x1="229.589" y1="261.152" x2="229.589" y2="94.861" gradientUnits="userSpaceOnUse">
<stop offset="0.0112" stop-color="#4B2B67"/>
<stop offset="1" stop-color="#6B4F9F"/>
</linearGradient>
<linearGradient id="paint37_linear_90_848" x1="133.063" y1="293.832" x2="133.063" y2="124.175" gradientUnits="userSpaceOnUse">
<stop stop-color="#CCCCFF"/>
<stop offset="1" stop-color="#755C9D"/>
</linearGradient>
<linearGradient id="paint38_linear_90_848" x1="230.555" y1="261.151" x2="230.555" y2="95.5643" gradientUnits="userSpaceOnUse">
<stop stop-color="#9C8ABB"/>
<stop offset="1" stop-color="white"/>
</linearGradient>
<linearGradient id="paint39_linear_90_848" x1="262.652" y1="342.871" x2="262.652" y2="282.479" gradientUnits="userSpaceOnUse">
<stop stop-color="#FF9595"/>
<stop offset="0.984" stop-color="#FFC2A9"/>
</linearGradient>
<linearGradient id="paint40_linear_90_848" x1="114.883" y1="383.191" x2="123.661" y2="383.191" gradientUnits="userSpaceOnUse">
<stop stop-color="#FF5179"/>
<stop offset="0.0856" stop-color="#F54E74"/>
<stop offset="0.2337" stop-color="#D84567"/>
<stop offset="0.4265" stop-color="#AB3651"/>
<stop offset="0.6566" stop-color="#6B2233"/>
<stop offset="0.9155" stop-color="#1C090D"/>
<stop offset="1"/>
</linearGradient>
</defs>
</svg>
