<svg width="31" height="31" viewBox="0 0 31 31" fill="none" xmlns="http://www.w3.org/2000/svg">
<path d="M4.53653 19.3749H10.5554C10.4102 18.1509 10.3334 16.849 10.3334 15.4999C10.3334 14.1508 10.4102 12.849 10.5554 11.6249H4.53653C4.10814 12.8369 3.87504 14.1412 3.87504 15.4999C3.87504 16.8586 4.10814 18.1629 4.53653 19.3749ZM5.08342 20.6666C6.621 23.7606 9.49647 26.0724 12.9529 26.845C11.9465 25.4752 11.1757 23.2979 10.7386 20.6666H5.08342ZM26.4636 19.3749C26.8919 18.1629 27.125 16.8586 27.125 15.4999C27.125 14.1412 26.8919 12.8369 26.4636 11.6249H20.4447C20.5899 12.849 20.6667 14.1508 20.6667 15.4999C20.6667 16.849 20.5899 18.1509 20.4447 19.3749H26.4636ZM25.9167 20.6666H20.2614C19.8243 23.2979 19.0536 25.4752 18.0472 26.845C21.5036 26.0724 24.3791 23.7606 25.9167 20.6666ZM11.8632 19.3749H19.1369C19.2898 18.1638 19.375 16.8598 19.375 15.4999C19.375 14.14 19.2898 12.836 19.1369 11.6249H11.8632C11.7103 12.836 11.625 14.14 11.625 15.4999C11.625 16.8598 11.7103 18.1638 11.8632 19.3749ZM12.0577 20.6666C12.7322 24.5 14.1026 27.1249 15.5 27.1249C16.8975 27.1249 18.2679 24.5 18.9424 20.6666H12.0577ZM5.08342 10.3333H10.7386C11.1757 7.70195 11.9465 5.52467 12.9529 4.15483C9.49647 4.92747 6.621 7.23927 5.08342 10.3333ZM25.9167 10.3333C24.3791 7.23927 21.5036 4.92747 18.0472 4.15483C19.0536 5.52467 19.8243 7.70195 20.2614 10.3333H25.9167ZM12.0577 10.3333H18.9424C18.2679 6.49981 16.8975 3.87492 15.5 3.87492C14.1026 3.87492 12.7322 6.49981 12.0577 10.3333ZM15.5 28.4166C8.36636 28.4166 2.58337 22.6336 2.58337 15.4999C2.58337 8.36624 8.36636 2.58325 15.5 2.58325C22.6337 2.58325 28.4167 8.36624 28.4167 15.4999C28.4167 22.6336 22.6337 28.4166 15.5 28.4166Z" fill="url(#paint0_linear_51_171)"/>
<defs>
<linearGradient id="paint0_linear_51_171" x1="20" y1="25" x2="9.5" y2="5" gradientUnits="userSpaceOnUse">
<stop stop-color="#5E096C"/>
<stop offset="1" stop-color="#951EA9"/>
</linearGradient>
</defs>
</svg>
