<?xml version="1.0" encoding="UTF-8"?>
<svg xmlns="http://www.w3.org/2000/svg" xmlns:xlink="http://www.w3.org/1999/xlink" width="120px" height="40px" viewBox="0 0 120 40" version="1.1">
<defs>
<clipPath id="clip1">
  <path d="M 28.808594 10 L 49 10 L 49 30 L 28.808594 30 Z M 28.808594 10 "/>
</clipPath>
</defs>
<g id="surface1">
<g clip-path="url(#clip1)" clip-rule="nonzero">
<path style=" stroke:none;fill-rule:evenodd;fill:rgb(0%,0%,0%);fill-opacity:1;" d="M 39.035156 29.941406 C 37.078125 29.941406 36.167969 29.65625 34.585938 28.515625 C 33.585938 29.800781 30.417969 30.804688 30.28125 29.085938 C 30.28125 27.796875 29.996094 26.703125 29.671875 25.515625 C 29.285156 24.046875 28.847656 22.414062 28.847656 20.046875 C 28.847656 14.394531 33.484375 10.144531 38.980469 10.144531 C 44.480469 10.144531 48.789062 14.605469 48.789062 20.101562 C 48.800781 22.699219 47.777344 25.195312 45.949219 27.039062 C 44.117188 28.886719 41.632812 29.929688 39.035156 29.941406 Z M 39.113281 15.027344 C 36.4375 14.890625 34.351562 16.742188 33.890625 19.648438 C 33.507812 22.050781 34.1875 24.980469 34.761719 25.132812 C 35.039062 25.199219 35.734375 24.636719 36.167969 24.203125 C 36.882812 24.699219 37.71875 24.996094 38.585938 25.066406 C 39.917969 25.128906 41.222656 24.667969 42.21875 23.78125 C 43.214844 22.894531 43.824219 21.652344 43.914062 20.320312 C 43.964844 18.984375 43.492188 17.683594 42.59375 16.695312 C 41.699219 15.707031 40.449219 15.109375 39.113281 15.035156 Z M 39.113281 15.027344 "/>
</g>
<path style=" stroke:none;fill-rule:nonzero;fill:rgb(0%,0%,0%);fill-opacity:1;" d="M 57.523438 25.308594 L 55.410156 25.308594 L 55.410156 15.308594 L 58.851562 15.308594 L 61.15625 22.171875 L 61.46875 22.171875 L 63.871094 15.308594 L 67.238281 15.308594 L 67.238281 25.308594 L 65.121094 25.308594 L 65.121094 17.882812 L 64.8125 17.882812 L 62.195312 25.308594 L 60.332031 25.308594 L 57.832031 17.882812 L 57.523438 17.882812 Z M 73.851562 25.5 C 72.914062 25.5 72.078125 25.28125 71.328125 24.847656 C 70.589844 24.402344 69.984375 23.761719 69.582031 23 C 69.164062 22.164062 68.953125 21.242188 68.96875 20.308594 C 68.96875 19.308594 69.171875 18.414062 69.585938 17.632812 C 69.980469 16.863281 70.589844 16.222656 71.332031 15.785156 C 72.09375 15.335938 72.96875 15.105469 73.851562 15.117188 C 74.6875 15.117188 75.421875 15.296875 76.0625 15.652344 C 76.703125 16 77.230469 16.425781 77.636719 16.925781 L 78.101562 15.304688 L 79.761719 15.304688 L 79.761719 25.304688 L 78.109375 25.304688 L 77.648438 23.691406 C 77.207031 24.214844 76.667969 24.652344 76.066406 24.976562 C 75.386719 25.332031 74.625 25.511719 73.855469 25.5 Z M 74.390625 23.519531 C 75.328125 23.519531 76.082031 23.222656 76.660156 22.632812 C 76.957031 22.324219 77.1875 21.960938 77.339844 21.5625 C 77.488281 21.160156 77.558594 20.734375 77.542969 20.308594 C 77.542969 19.355469 77.246094 18.589844 76.660156 18 C 76.367188 17.699219 76.015625 17.460938 75.621094 17.304688 C 75.230469 17.148438 74.8125 17.078125 74.390625 17.09375 C 73.46875 17.09375 72.71875 17.394531 72.144531 18 C 71.851562 18.308594 71.625 18.667969 71.472656 19.066406 C 71.324219 19.464844 71.257812 19.886719 71.277344 20.308594 C 71.277344 21.257812 71.5625 22.035156 72.144531 22.632812 C 72.4375 22.929688 72.789062 23.160156 73.175781 23.3125 C 73.5625 23.464844 73.976562 23.535156 74.390625 23.519531 Z M 83.585938 25.308594 L 81.085938 25.308594 L 84.257812 20.191406 L 81.449219 15.308594 L 83.953125 15.308594 L 85.8125 18.671875 L 86.179688 18.671875 L 88.144531 15.308594 L 90.585938 15.308594 L 87.777344 20.058594 L 90.953125 25.308594 L 88.371094 25.308594 L 86.238281 21.519531 L 85.871094 21.519531 Z M 83.585938 25.308594 "/>
</g>
</svg>
