<svg xmlns="http://www.w3.org/2000/svg" width="600" height="200" viewBox="0 0 600 200" fill="none">
<g clip-path="url(#clip0_4845_5846)">
<path fill-rule="evenodd" clip-rule="evenodd" d="M195.167 149.715C185.381 149.715 180.834 148.286 172.929 142.572C167.929 149 152.095 154.024 151.405 145.429C151.405 138.977 149.976 133.524 148.357 127.572C146.429 120.239 144.238 112.072 144.238 100.239C144.238 71.9767 167.429 50.7148 194.905 50.7148C222.405 50.7148 243.953 73.0243 243.953 100.5C243.997 113.492 238.885 125.971 229.739 135.198C220.592 144.424 208.159 149.645 195.167 149.715ZM195.572 75.1434C182.191 74.4529 171.762 83.7148 169.453 98.2386C167.548 110.262 170.929 124.905 173.81 125.667C175.191 126 178.667 123.191 180.834 121.024C184.416 123.499 188.588 124.986 192.929 125.334C199.594 125.654 206.118 123.347 211.1 118.908C216.083 114.47 219.124 108.253 219.572 101.596C219.832 94.9243 217.463 88.4173 212.975 83.4747C208.487 78.5321 202.237 75.549 195.572 75.1672V75.1434Z" fill="url(#paint0_linear_4845_5846)"/>
<path d="M287.619 126.548H277.048V76.5477H294.262L305.786 110.857H307.334L319.357 76.5477H336.191V126.548H325.596V89.4049H324.072L310.976 126.548H301.667L289.167 89.4049H287.619V126.548ZM369.262 127.5C364.572 127.5 360.381 126.405 356.643 124.238C352.946 122.009 349.925 118.815 347.905 115C345.811 110.829 344.757 106.214 344.834 101.548C344.834 96.5477 345.857 92.0715 347.929 88.1668C349.912 84.3252 352.942 81.1226 356.667 78.9287C360.476 76.6728 364.836 75.5188 369.262 75.5954C373.429 75.5954 377.119 76.4763 380.31 78.262C383.524 80.0001 386.143 82.1192 388.191 84.6192L390.5 76.5239H398.81V126.524H390.548L388.238 118.452C386.031 121.073 383.349 123.254 380.334 124.881C376.929 126.667 373.13 127.568 369.286 127.5H369.262ZM371.953 117.595C376.643 117.595 380.405 116.119 383.31 113.167C384.784 111.623 385.933 109.8 386.69 107.804C387.447 105.808 387.795 103.681 387.715 101.548C387.715 96.7858 386.238 92.9525 383.31 90.0001C381.841 88.4909 380.07 87.3081 378.113 86.5287C376.156 85.7493 374.057 85.3907 371.953 85.4763C367.334 85.4763 363.596 86.9763 360.715 90.0001C359.254 91.5355 358.118 93.3493 357.373 95.3332C356.629 97.3171 356.292 99.4306 356.381 101.548C356.381 106.286 357.81 110.167 360.715 113.167C362.18 114.641 363.936 115.796 365.87 116.558C367.804 117.32 369.875 117.674 371.953 117.595ZM417.929 126.548H405.429L421.286 100.952L407.238 76.5477H419.762L429.072 93.3572H430.905L440.715 76.5477H452.929L438.881 100.286L454.762 126.548H441.858L431.191 107.595H429.357L417.929 126.548Z" fill="url(#paint1_linear_4845_5846)"/>
</g>
<defs>
<linearGradient id="paint0_linear_4845_5846" x1="144.238" y1="100.356" x2="243.953" y2="100.356" gradientUnits="userSpaceOnUse">
<stop/>
</linearGradient>
<linearGradient id="paint1_linear_4845_5846" x1="277.048" y1="101.548" x2="454.762" y2="101.548" gradientUnits="userSpaceOnUse">
<stop/>
</linearGradient>
<clipPath id="clip0_4845_5846">
<rect width="311.905" height="100" fill="white" transform="translate(144.048 50)"/>
</clipPath>
</defs>
</svg>